{"title":"Freelancers.2012.BRRip.720p.x264.Feel-Free","uid":7541191,"size":2446127278,"categoryP":"video","categoryS":"hd___movies","magnet":"?xt=urn:btih:cfb1131c059c0485147e375067c81973ce079bb6&amp;dn=Freelancers.2012.BRRip.720p.x264.Feel-Free&amp;tr=udp%3A%2F%2Ftracker.openbittorrent.com%3A80&amp;tr=udp%3A%2F%2Fopen.demonii.com%3A1337&amp;tr=udp%3A%2F%2Ftracker.coppersurfer.tk%3A6969&amp;tr=udp%3A%2F%2Fexodus.desync.com%3A6969","seeders":0,"leechers":0,"uploader":"hiest","files":-1,"time":1345219225,"description":"8888888888                888      8888888888                       \n888                       888      888                              \n888                       888      888                              \n8888888  .d88b.   .d88b.  888      8888888 888d888 .d88b.   .d88b.  \n888     d8P  Y8b d8P  Y8b 888      888     888P&quot;  d8P  Y8b d8P  Y8b \n888     88888888 88888888 888      888     888    88888888 88888888 \n888     Y8b.     Y8b.     888      888     888    Y8b.     Y8b.     \n888      &quot;Y8888   &quot;Y8888  888      888     888     &quot;Y8888   &quot;Y8888  \n\n\n################Credits To Feel Free, Pitic &amp; Tony################\n\n\nGenre:Action | Crime | Drama\nLanguage:English\nIMDb: &lt;a href=&quot;\nhttp://www.imdb.com/title/tt1815708&quot; rel=&quot;nofollow&quot; target=&quot;_NEW&quot;&gt;\nhttp://www.imdb.com/title/tt1815708&lt;/a&gt;\nSource:BluRay.1080p.DTS.x264-CHD Thanks\nEncoder:Tony\n\nFormat : MPEG-4\nFormat profile : Base Media\nCodec ID : isom\nFile size : 2.27 GiB\nDuration : 1h 36mn\nOverall bit rate mode : Variable\nOverall bit rate : 3 371 Kbps\n\nVideo\nID : 1\nFormat : AVC\nFormat/Info : Advanced Video Codec\nFormat profile : &lt;a class=&quot;__cf_email__&quot; href=&quot;/cdn-cgi/l/email-protection&quot; data-cfemail=&quot;367e5f515e767a021807&quot;&gt;[email&amp;#160;protected]&lt;/a&gt;&lt;script data-cfhash='f9e31' type=&quot;text/javascript&quot;&gt;\n/* &lt;![CDATA[ */!function(){try{var t=&quot;currentScript&quot;in document?document.currentScript:function(){for(var t=document.getElementsByTagName(&quot;script&quot;),e=t.length;e--;)if(t[e].getAttribute(&quot;data-cfhash&quot;))return t[e]}();if(t&amp;&amp;t.previousSibling){var e,r,n,i,c=t.previousSibling,a=c.getAttribute(&quot;data-cfemail&quot;);if(a){for(e=&quot;&quot;,r=parseInt(a.substr(0,2),16),n=2;a.length-n;n+=2)i=parseInt(a.substr(n,2),16)^r,e+=String.fromCharCode(i);e=document.createTextNode(e),c.parentNode.replaceChild(e,c)}t.parentNode.removeChild(t);}}catch(u){}}()/* ]]&gt; */&lt;/script&gt;\nFormat settings, CABAC : Yes\nFormat settings, ReFrames : 3 frames\nCodec ID : avc1\nCodec ID/Info : Advanced Video Coding\nDuration : 1h 36mn\nBit rate : 3 000 Kbps\nMaximum bit rate : 21.8 Mbps\nWidth : 1 280 pixels\nHeight : 528 pixels\nDisplay aspect ratio : 2.40:1\nFrame rate mode : Constant\nFrame rate : 23.976 fps\nColor space : YUV\nChroma subsampling : 4:2:0\nBit depth : 8 bits\nScan type : Progressive\nBits/(Pixel*Frame) : 0.185\nStream size : 1.99 GiB (87%)\nWriting library : x264\n\nAudio\nID : 2\nFormat : AAC\nFormat/Info : Advanced Audio Codec\nFormat profile : LC\nCodec ID : 40\nDuration : 1h 36mn\nBit rate mode : Variable\nBit rate : 423 Kbps\nMaximum bit rate : 545 Kbps\nChannel(s) : 6 channels\nChannel positions : Front: L C R, Side: L R, LFE\nSampling rate : 48.0 KHz\nCompression mode : Lossy\nStream size : 292 MiB (13%)\n\nPlot:\nThe son of a slain NYPD officer joins the force, where he falls in with his father's former partner and a team of rogue cops.\n\n\nScreen Shots:\n                                               &lt;a href=&quot;\nhttp://img641.imageshack.us/img641/2015/vlcsnap2012081716h15m19.png&quot; rel=&quot;nofollow&quot; target=&quot;_NEW&quot;&gt;\nhttp://img641.imageshack.us/img641/2015/vlcsnap2012081716h15m19.png&lt;/a&gt;\n &lt;a href=&quot;\nhttp://img11.imageshack.us/img11/407/vlcsnap2012081716h15m25.png&quot; rel=&quot;nofollow&quot; target=&quot;_NEW&quot;&gt;\nhttp://img11.imageshack.us/img11/407/vlcsnap2012081716h15m25.png&lt;/a&gt;\n &lt;a href=&quot;\nhttp://img716.imageshack.us/img716/4116/vlcsnap2012081716h16m11.png&quot; rel=&quot;nofollow&quot; target=&quot;_NEW&quot;&gt;\nhttp://img716.imageshack.us/img716/4116/vlcsnap2012081716h16m11.png&lt;/a&gt;\n &lt;a href=&quot;\nhttp://img27.imageshack.us/img27/8296/vlcsnap2012081716h16m19.png&quot; rel=&quot;nofollow&quot; target=&quot;_NEW&quot;&gt;\nhttp://img27.imageshack.us/img27/8296/vlcsnap2012081716h16m19.png&lt;/a&gt;\n &lt;a href=&quot;\nhttp://img811.imageshack.us/img811/125/vlcsnap2012081716h16m39.png&quot; rel=&quot;nofollow&quot; target=&quot;_NEW&quot;&gt;\nhttp://img811.imageshack.us/img811/125/vlcsnap2012081716h16m39.png&lt;/a&gt;\n &lt;a href=&quot;\nhttp://img806.imageshack.us/img806/9806/vlcsnap2012081716h16m51.png&quot; rel=&quot;nofollow&quot; target=&quot;_NEW&quot;&gt;\nhttp://img806.imageshack.us/img806/9806/vlcsnap2012081716h16m51.png&lt;/a&gt;\n\n\n################Credits To Feel Free, Pitic &amp; Tony################\n\n\n8888888888                888      8888888888                       \n888                       888      888                              \n888                       888      888                              \n8888888  .d88b.   .d88b.  888      8888888 888d888 .d88b.   .d88b.  \n888     d8P  Y8b d8P  Y8b 888      888     888P&quot;  d8P  Y8b d8P  Y8b \n888     88888888 88888888 888      888     888    88888888 88888888 \n888     Y8b.     Y8b.     888      888     888    Y8b.     Y8b.     \n888      &quot;Y8888   &quot;Y8888  888      888     888     &quot;Y8888   &quot;Y8888  ","torrent":{"xt":"urn:btih:cfb1131c059c0485147e375067c81973ce079bb6","amp;dn":"Freelancers.2012.BRRip.720p.x264.Feel-Free","amp;tr":["udp%3A%2F%2Ftracker.openbittorrent.com%3A80","udp%3A%2F%2Fopen.demonii.com%3A1337","udp%3A%2F%2Ftracker.coppersurfer.tk%3A6969","udp%3A%2F%2Fexodus.desync.com%3A6969"],"infoHash":"cfb1131c059c0485147e375067c81973ce079bb6","infoHashBuffer":{"type":"Buffer","data":[207,177,19,28,5,156,4,133,20,126,55,80,103,200,25,115,206,7,155,182]},"announce":[],"urlList":[]}}